<svg xmlns="http://www.w3.org/2000/svg" xmlns:xlink="http://www.w3.org/1999/xlink" version="1.1" x="0px" y="0px" viewBox="0 0 100 125" enable-background="new 0 0 100 100" xml:space="preserve"><path d="M50,94.385C25.526,94.385,5.615,74.475,5.615,50S25.526,5.615,50,5.615S94.385,25.526,94.385,50  c0,9.749-3.105,19.002-8.978,26.761l-0.992,1.31l-0.128-1.638c-0.102-1.298-0.427-2.552-0.966-3.73l-0.145-0.316l0.192-0.289  c4.354-6.562,6.656-14.203,6.656-22.098C90.024,27.931,72.07,9.977,50,9.977C27.931,9.977,9.977,27.931,9.977,50  c0,22.07,17.954,40.023,40.023,40.023c5.735,0,11.287-1.198,16.5-3.561l0.316-0.144l0.289,0.193  c1.066,0.714,2.258,1.233,3.543,1.545l1.598,0.388l-1.453,0.771C64.426,92.598,57.237,94.385,50,94.385z M50,6.864  C26.215,6.864,6.864,26.215,6.864,50c0,23.785,19.351,43.136,43.136,43.136c6.522,0,13.004-1.493,18.845-4.332  c-0.752-0.284-1.468-0.641-2.142-1.064C61.418,90.085,55.8,91.273,50,91.273C27.243,91.273,8.728,72.758,8.728,50  S27.243,8.728,50,8.728S91.273,27.243,91.273,50c0,8.026-2.307,15.799-6.676,22.501c0.312,0.736,0.55,1.496,0.712,2.275  c5.125-7.28,7.826-15.813,7.826-24.777C93.136,26.215,73.785,6.864,50,6.864z"/><path d="M74.14,83.411c-0.345,0-0.625-0.279-0.625-0.625V73.35c0-0.345,0.279-0.625,0.625-0.625c0.345,0,0.625,0.279,0.625,0.625  v9.437C74.765,83.132,74.486,83.411,74.14,83.411z"/><path d="M78.858,78.693h-9.437c-0.345,0-0.625-0.279-0.625-0.625c0-0.345,0.279-0.625,0.625-0.625h9.437  c0.345,0,0.625,0.279,0.625,0.625C79.483,78.414,79.203,78.693,78.858,78.693z"/><path d="M73.822,87.903c-5.403,0-9.8-4.397-9.8-9.8s4.397-9.8,9.8-9.8s9.8,4.397,9.8,9.8S79.225,87.903,73.822,87.903z   M73.822,69.552c-4.715,0-8.551,3.836-8.551,8.551c0,4.715,3.836,8.551,8.551,8.551c4.715,0,8.551-3.836,8.551-8.551  C82.373,73.388,78.537,69.552,73.822,69.552z"/><text x="0" y="115" fill="#000000" font-size="5px" font-weight="bold" font-family="'Helvetica Neue', Helvetica, Arial-Unicode, Arial, Sans-serif">Created by Falk Heger</text><text x="0" y="120" fill="#000000" font-size="5px" font-weight="bold" font-family="'Helvetica Neue', Helvetica, Arial-Unicode, Arial, Sans-serif">from the Noun Project</text></svg>