<svg xmlns="http://www.w3.org/2000/svg" xmlns:xlink="http://www.w3.org/1999/xlink" version="1.1" x="0px" y="0px" viewBox="0 0 100 125" enable-background="new 0 0 100 100" xml:space="preserve"><g><path d="M66.403,86.246C61.4,88.514,55.851,89.787,50,89.787c-21.974,0-39.787-17.813-39.787-39.787   c0-21.974,17.813-39.787,39.787-39.787c21.974,0,39.787,17.813,39.787,39.787c0,8.122-2.439,15.672-6.617,21.967   c0.546,1.191,0.893,2.489,0.999,3.858c5.436-7.181,8.664-16.125,8.664-25.825C92.834,26.344,73.657,7.166,50,7.166   C26.344,7.166,7.166,26.344,7.166,50c0,23.656,19.177,42.834,42.834,42.834c7.252,0,14.08-1.809,20.066-4.99   C68.742,87.523,67.503,86.983,66.403,86.246z"/><path d="M50,93.445C26.045,93.445,6.555,73.956,6.555,50S26.045,6.555,50,6.555S93.445,26.045,93.445,50   c0,9.542-3.039,18.6-8.788,26.194l-0.971,1.283l-0.125-1.604c-0.1-1.271-0.418-2.498-0.946-3.651l-0.142-0.309l0.187-0.283   c4.262-6.423,6.515-13.903,6.515-21.63c0-21.601-17.574-39.176-39.176-39.176c-21.601,0-39.176,17.574-39.176,39.176   c0,21.602,17.574,39.176,39.176,39.176c5.613,0,11.048-1.173,16.151-3.486l0.309-0.141l0.283,0.189   c1.044,0.699,2.21,1.207,3.468,1.512l1.564,0.38l-1.422,0.755C64.121,91.696,57.084,93.445,50,93.445z M50,7.778   C26.719,7.778,7.778,26.719,7.778,50c0,23.281,18.941,42.222,42.223,42.222c6.383,0,12.728-1.462,18.446-4.241   c-0.736-0.278-1.437-0.627-2.097-1.041C61.176,89.236,55.677,90.399,50,90.399C27.725,90.399,9.602,72.276,9.602,50   S27.725,9.602,50,9.602S90.399,27.725,90.399,50c0,7.856-2.258,15.464-6.535,22.025c0.306,0.72,0.539,1.464,0.697,2.227   c5.017-7.126,7.661-15.478,7.661-24.252C92.222,26.719,73.281,7.778,50,7.778z"/></g><path d="M73.629,82.703c-0.338,0-0.611-0.273-0.611-0.611v-9.237c0-0.338,0.273-0.611,0.611-0.611s0.611,0.273,0.611,0.611v9.237  C74.24,82.43,73.967,82.703,73.629,82.703z"/><path d="M78.247,78.086H69.01c-0.338,0-0.611-0.273-0.611-0.611c0-0.338,0.273-0.611,0.611-0.611h9.237  c0.338,0,0.611,0.273,0.611,0.611C78.858,77.812,78.585,78.086,78.247,78.086z"/><path d="M73.317,87.1c-5.289,0-9.593-4.304-9.593-9.593s4.304-9.593,9.593-9.593s9.593,4.304,9.593,9.593S78.606,87.1,73.317,87.1z   M73.317,69.138c-4.615,0-8.37,3.754-8.37,8.37s3.754,8.37,8.37,8.37s8.37-3.754,8.37-8.37S77.933,69.138,73.317,69.138z"/><text x="0" y="115" fill="#000000" font-size="5px" font-weight="bold" font-family="'Helvetica Neue', Helvetica, Arial-Unicode, Arial, Sans-serif">Created by Falk Heger</text><text x="0" y="120" fill="#000000" font-size="5px" font-weight="bold" font-family="'Helvetica Neue', Helvetica, Arial-Unicode, Arial, Sans-serif">from the Noun Project</text></svg>